<?xml version="1.0" encoding="UTF-8" standalone="no"?><!DOCTYPE svg PUBLIC "-//W3C//DTD SVG 1.1//EN" "http://www.w3.org/Graphics/SVG/1.1/DTD/svg11.dtd"><svg width="100%" height="100%" viewBox="0 0 24 24" version="1.1" xmlns="http://www.w3.org/2000/svg" xmlns:xlink="http://www.w3.org/1999/xlink" xml:space="preserve" xmlns:serif="http://www.serif.com/" style="fill-rule:evenodd;clip-rule:evenodd;stroke-linejoin:round;stroke-miterlimit:1.41421;"><path d="M23.809,21.646l-6.205,-6.205c1.167,-1.605 1.857,-3.579 1.857,-5.711c0,-5.365 -4.365,-9.73 -9.731,-9.73c-5.365,0 -9.73,4.365 -9.73,9.73c0,5.366 4.365,9.73 9.73,9.73c2.034,0 3.923,-0.627 5.487,-1.698l6.238,6.238l2.354,-2.354Zm-20.955,-11.916c0,-3.792 3.085,-6.877 6.877,-6.877c3.792,0 6.877,3.085 6.877,6.877c0,3.792 -3.085,6.877 -6.877,6.877c-3.793,0 -6.877,-3.085 -6.877,-6.877Z" style="fill:#009bd5;fill-rule:nonzero;"/></svg>